<?xml version="1.0" encoding="UTF-8"?>
<svg xmlns="http://www.w3.org/2000/svg" xmlns:xlink="http://www.w3.org/1999/xlink" width="18pt" height="18pt" viewBox="0 0 18 18" version="1.1">
<g id="surface1">
<path style="fill:none;stroke-width:1.5;stroke-linecap:round;stroke-linejoin:round;stroke:rgb(0%,0%,0%);stroke-opacity:1;stroke-miterlimit:4;" d="M 16 23 C 19.868056 23 23 19.868056 23 16 C 23 12.131944 19.868056 9 16 9 C 12.131944 9 9 12.131944 9 16 C 9 19.868056 12.131944 23 16 23 Z M 16 23 " transform="matrix(0.5625,0,0,0.5625,0,0)"/>
<path style="fill:none;stroke-width:1.5;stroke-linecap:round;stroke-linejoin:round;stroke:rgb(0%,0%,0%);stroke-opacity:1;stroke-miterlimit:4;" d="M 27 15 L 28.291667 13.069444 C 28.375 12.944444 28.430556 12.798611 28.451389 12.652778 C 28.472222 12.506944 28.465278 12.354167 28.423611 12.208333 C 28.180556 11.409722 27.861111 10.631944 27.465278 9.895833 C 27.395833 9.763889 27.291667 9.652778 27.173611 9.5625 C 27.048611 9.472222 26.909722 9.416667 26.763889 9.381944 L 24.486111 8.930556 L 23.069444 7.513889 L 22.618056 5.236111 C 22.590278 5.090278 22.527778 4.951389 22.4375 4.826389 C 22.347222 4.708333 22.236111 4.604167 22.104167 4.534722 C 21.368056 4.138889 20.590278 3.819444 19.791667 3.576389 C 19.645833 3.534722 19.493056 3.527778 19.347222 3.548611 C 19.201389 3.569444 19.055556 3.625 18.930556 3.708333 L 17 5 L 15 5 L 13.069444 3.708333 C 12.944444 3.625 12.798611 3.569444 12.652778 3.548611 C 12.506944 3.527778 12.354167 3.534722 12.208333 3.576389 C 11.409722 3.819444 10.631944 4.138889 9.895833 4.534722 C 9.763889 4.604167 9.652778 4.708333 9.5625 4.826389 C 9.472222 4.951389 9.416667 5.090278 9.381944 5.236111 L 8.930556 7.513889 L 7.513889 8.930556 L 5.236111 9.381944 C 5.090278 9.409722 4.951389 9.472222 4.826389 9.5625 C 4.708333 9.652778 4.604167 9.763889 4.534722 9.895833 C 4.138889 10.631944 3.819444 11.409722 3.576389 12.208333 C 3.534722 12.354167 3.527778 12.506944 3.548611 12.652778 C 3.569444 12.798611 3.625 12.944444 3.708333 13.069444 L 5 15 L 5 17 L 3.708333 18.930556 C 3.625 19.055556 3.569444 19.201389 3.548611 19.347222 C 3.527778 19.493056 3.534722 19.645833 3.576389 19.791667 C 3.819444 20.590278 4.138889 21.368056 4.534722 22.104167 C 4.604167 22.236111 4.708333 22.347222 4.826389 22.4375 C 4.951389 22.527778 5.090278 22.590278 5.236111 22.618056 L 7.513889 23.069444 L 8.930556 24.486111 L 9.381944 26.763889 C 9.409722 26.909722 9.472222 27.048611 9.5625 27.173611 C 9.652778 27.291667 9.763889 27.395833 9.895833 27.465278 C 10.631944 27.861111 11.409722 28.180556 12.208333 28.423611 C 12.354167 28.465278 12.506944 28.472222 12.652778 28.451389 C 12.798611 28.430556 12.944444 28.375 13.069444 28.291667 L 15 27 L 17 27 L 18.930556 28.291667 C 19.055556 28.375 19.201389 28.430556 19.347222 28.451389 C 19.493056 28.472222 19.645833 28.465278 19.791667 28.423611 C 20.590278 28.180556 21.368056 27.861111 22.104167 27.465278 C 22.236111 27.395833 22.347222 27.291667 22.4375 27.173611 C 22.527778 27.048611 22.583333 26.909722 22.618056 26.763889 L 23.069444 24.486111 L 24.486111 23.069444 L 26.763889 22.618056 C 26.909722 22.590278 27.048611 22.527778 27.173611 22.4375 C 27.291667 22.347222 27.395833 22.236111 27.465278 22.104167 C 27.861111 21.368056 28.180556 20.590278 28.423611 19.791667 C 28.465278 19.645833 28.472222 19.493056 28.451389 19.347222 C 28.430556 19.201389 28.375 19.055556 28.291667 18.930556 L 27 17 Z M 27 15 " transform="matrix(0.5625,0,0,0.5625,0,0)"/>
</g>
</svg>
