<?xml version="1.0" encoding="UTF-8"?>
<svg xmlns="http://www.w3.org/2000/svg" xmlns:xlink="http://www.w3.org/1999/xlink" width="18pt" height="18pt" viewBox="0 0 18 18" version="1.1">
<g id="surface1">
<path style="fill:none;stroke-width:1.5;stroke-linecap:round;stroke-linejoin:round;stroke:rgb(0%,0%,0%);stroke-opacity:1;stroke-miterlimit:4;" d="M 25.5 5.5 L 6.5 5.5 C 5.944444 5.5 5.5 5.944444 5.5 6.5 L 5.5 25.5 C 5.5 26.055556 5.944444 26.5 6.5 26.5 L 25.5 26.5 C 26.055556 26.5 26.5 26.055556 26.5 25.5 L 26.5 6.5 C 26.5 5.944444 26.055556 5.5 25.5 5.5 Z M 25.5 5.5 " transform="matrix(0.5625,0,0,0.5625,0,0)"/>
<path style="fill:none;stroke-width:1.5;stroke-linecap:round;stroke-linejoin:round;stroke:rgb(0%,0%,0%);stroke-opacity:1;stroke-miterlimit:4;" d="M 16 5.5 L 16 26.5 " transform="matrix(0.5625,0,0,0.5625,0,0)"/>
<path style="fill:none;stroke-width:1.5;stroke-linecap:round;stroke-linejoin:round;stroke:rgb(0%,0%,0%);stroke-opacity:1;stroke-miterlimit:4;" d="M 26.5 16 L 5.5 16 " transform="matrix(0.5625,0,0,0.5625,0,0)"/>
</g>
</svg>
