<?xml version="1.0" encoding="UTF-8"?>
<svg xmlns="http://www.w3.org/2000/svg" xmlns:xlink="http://www.w3.org/1999/xlink" width="18pt" height="18pt" viewBox="0 0 18 18" version="1.1">
<g id="surface1">
<path style="fill:none;stroke-width:1.5;stroke-linecap:round;stroke-linejoin:round;stroke:rgb(0%,0%,0%);stroke-opacity:1;stroke-miterlimit:4;" d="M 16.708333 26.486111 L 26.833333 16.354167 C 29.326389 13.868056 29.694444 9.770833 27.340278 7.159722 C 26.75 6.5 26.027778 5.972222 25.229167 5.597222 C 24.423611 5.229167 23.555556 5.027778 22.673611 5 C 21.791667 4.979167 20.916667 5.131944 20.090278 5.465278 C 19.270833 5.791667 18.527778 6.277778 17.902778 6.902778 L 16 8.805556 L 14.354167 7.166667 C 11.868056 4.673611 7.770833 4.305556 5.159722 6.659722 C 4.5 7.25 3.972222 7.972222 3.597222 8.770833 C 3.229167 9.576389 3.027778 10.444444 3 11.326389 C 2.979167 12.208333 3.131944 13.083333 3.465278 13.909722 C 3.791667 14.729167 4.277778 15.472222 4.902778 16.097222 L 15.291667 26.486111 C 15.479167 26.673611 15.736111 26.777778 16 26.777778 C 16.263889 26.777778 16.520833 26.673611 16.708333 26.486111 Z M 16.708333 26.486111 " transform="matrix(0.5625,0,0,0.5625,0,0)"/>
</g>
</svg>
