<?xml version="1.0" encoding="UTF-8"?>
<svg xmlns="http://www.w3.org/2000/svg" xmlns:xlink="http://www.w3.org/1999/xlink" width="18pt" height="18pt" viewBox="0 0 18 18" version="1.1">
<g id="surface1">
<path style="fill:none;stroke-width:1.5;stroke-linecap:round;stroke-linejoin:round;stroke:rgb(0%,0%,0%);stroke-opacity:1;stroke-miterlimit:4;" d="M 19 26 L 19 20 C 19 19.736111 18.895833 19.479167 18.708333 19.291667 C 18.520833 19.104167 18.263889 19 18 19 L 14 19 C 13.736111 19 13.479167 19.104167 13.291667 19.291667 C 13.104167 19.479167 13 19.736111 13 20 L 13 26 C 13 26.263889 12.895833 26.520833 12.708333 26.708333 C 12.520833 26.895833 12.263889 27 12 27 L 6 27 C 5.868056 27 5.736111 26.972222 5.618056 26.923611 C 5.493056 26.875 5.388889 26.798611 5.291667 26.708333 C 5.201389 26.611111 5.125 26.506944 5.076389 26.381944 C 5.027778 26.263889 5 26.131944 5 26 L 5 14.444444 C 5 14.305556 5.027778 14.166667 5.083333 14.034722 C 5.138889 13.909722 5.222222 13.798611 5.326389 13.701389 L 15.326389 4.611111 C 15.513889 4.444444 15.75 4.347222 16 4.347222 C 16.25 4.347222 16.486111 4.444444 16.673611 4.611111 L 26.673611 13.701389 C 26.777778 13.798611 26.861111 13.909722 26.916667 14.034722 C 26.972222 14.166667 27 14.305556 27 14.444444 L 27 26 C 27 26.131944 26.972222 26.263889 26.923611 26.381944 C 26.875 26.506944 26.798611 26.611111 26.708333 26.708333 C 26.611111 26.798611 26.506944 26.875 26.381944 26.923611 C 26.263889 26.972222 26.131944 27 26 27 L 20 27 C 19.736111 27 19.479167 26.895833 19.291667 26.708333 C 19.104167 26.520833 19 26.263889 19 26 Z M 19 26 " transform="matrix(0.5625,0,0,0.5625,0,0)"/>
</g>
</svg>
