<?xml version="1.0" encoding="UTF-8"?>
<svg xmlns="http://www.w3.org/2000/svg" xmlns:xlink="http://www.w3.org/1999/xlink" width="18pt" height="18pt" viewBox="0 0 18 18" version="1.1">
<g id="surface1">
<path style=" stroke:none;fill-rule:nonzero;fill:rgb(0%,0%,0%);fill-opacity:1;" d="M 11.15625 1.074219 C 11.0625 1.078125 10.972656 1.117188 10.90625 1.183594 L 9 3.089844 L 7.09375 1.183594 C 7.027344 1.117188 6.933594 1.078125 6.835938 1.078125 C 6.691406 1.078125 6.558594 1.164062 6.503906 1.300781 C 6.449219 1.4375 6.480469 1.59375 6.585938 1.695312 L 8.132812 3.238281 L 6.121094 3.238281 C 3.9375 3.238281 2.160156 5.015625 2.160156 7.199219 L 2.160156 12.960938 C 2.160156 15.144531 3.9375 16.921875 6.121094 16.921875 L 11.878906 16.921875 C 14.0625 16.921875 15.839844 15.144531 15.839844 12.960938 L 15.839844 7.199219 C 15.839844 5.015625 14.0625 3.238281 11.878906 3.238281 L 9.867188 3.238281 L 11.414062 1.695312 C 11.523438 1.589844 11.554688 1.433594 11.496094 1.296875 C 11.441406 1.160156 11.304688 1.070312 11.15625 1.074219 Z M 6.121094 3.960938 L 11.878906 3.960938 C 13.671875 3.960938 15.121094 5.40625 15.121094 7.199219 L 15.121094 12.960938 C 15.121094 14.753906 13.671875 16.199219 11.878906 16.199219 L 6.121094 16.199219 C 4.328125 16.199219 2.878906 14.753906 2.878906 12.960938 L 2.878906 7.199219 C 2.878906 5.40625 4.328125 3.960938 6.121094 3.960938 Z M 8.988281 8.640625 C 8.964844 8.640625 8.9375 8.644531 8.914062 8.652344 L 4.59375 9.730469 C 4.398438 9.777344 4.28125 9.972656 4.332031 10.167969 C 4.378906 10.359375 4.574219 10.476562 4.765625 10.429688 L 8.640625 9.460938 L 8.640625 11.160156 C 8.640625 11.269531 8.691406 11.375 8.777344 11.445312 C 8.867188 11.511719 8.980469 11.535156 9.085938 11.507812 L 13.40625 10.429688 C 13.601562 10.382812 13.71875 10.1875 13.667969 9.992188 C 13.621094 9.800781 13.425781 9.683594 13.234375 9.730469 L 9.359375 10.699219 L 9.359375 9 C 9.359375 8.902344 9.320312 8.808594 9.25 8.742188 C 9.179688 8.671875 9.085938 8.636719 8.988281 8.640625 Z M 8.988281 8.640625 "/>
</g>
</svg>
