<?xml version="1.0" encoding="UTF-8"?>
<svg xmlns="http://www.w3.org/2000/svg" xmlns:xlink="http://www.w3.org/1999/xlink" width="18pt" height="18pt" viewBox="0 0 18 18" version="1.1">
<g id="surface1">
<path style=" stroke:none;fill-rule:nonzero;fill:rgb(0%,0%,0%);fill-opacity:1;" d="M 9 0.71875 C 4.445312 0.71875 0.71875 4.175781 0.71875 8.460938 C 0.71875 10.804688 1.847656 12.882812 3.601562 14.296875 L 3.601562 17.515625 L 4.128906 17.234375 L 6.726562 15.886719 C 7.453125 16.078125 8.207031 16.199219 9 16.199219 C 13.554688 16.199219 17.28125 12.746094 17.28125 8.460938 C 17.28125 4.175781 13.554688 0.71875 9 0.71875 Z M 9 1.441406 C 13.191406 1.441406 16.558594 4.59375 16.558594 8.460938 C 16.558594 12.328125 13.191406 15.480469 9 15.480469 C 8.222656 15.480469 7.46875 15.367188 6.761719 15.164062 L 6.625 15.132812 L 6.503906 15.199219 L 4.320312 16.335938 L 4.320312 13.972656 L 4.183594 13.871094 C 2.507812 12.578125 1.441406 10.632812 1.441406 8.460938 C 1.441406 4.59375 4.808594 1.441406 9 1.441406 Z M 8.179688 6.378906 L 3.847656 10.96875 L 7.738281 8.785156 L 9.820312 11.015625 L 14.097656 6.378906 L 10.304688 8.503906 Z M 8.179688 6.378906 "/>
</g>
</svg>
